<?xml version="1.0" standalone="no"?>
<svg viewBox="0 0 200 200" xmlns="http://www.w3.org/2000/svg">
  <path fill="#F1C21B" d="M29.4,-46.8C39.4,-39.4,49.5,-33.3,57,-24C64.6,-14.6,69.4,-2,65.2,7.5C60.9,17,47.5,23.3,37.8,30.5C28.1,37.8,22,46.1,12.5,54.3C2.9,62.4,-10.1,70.5,-18.6,66.6C-27.2,62.6,-31.3,46.7,-33.9,34.5C-36.6,22.3,-37.7,14,-39,5.6C-40.2,-2.8,-41.6,-11.2,-42.9,-24.3C-44.2,-37.3,-45.4,-55,-38.3,-63.6C-31.1,-72.3,-15.6,-72,-2.9,-67.5C9.8,-63,19.5,-54.2,29.4,-46.8Z" transform="translate(100 100)" />
</svg>
